# xmcd
#
# Track frame offsets:
#	225
#	19606
#	31748
#	46736
#	61226
#	79692
#	94371
#	107767
#	123894
#	144198
#	160291
#	171868
#
# Disc length: 2496 seconds
# Revision: 0
# Processed by: cddbd v1.5.2PL0 Copyright (c) Steve Scherf et al.
# Submitted via: dBpowerAMP V12.0
#
DISCID=8c09bd0c
DTITLE=John Mc Nicholl - Something Old
DYEAR=1900
DGENRE=Irish
TTITLE0=Two teardrops
TTITLE1=All you really need is Love
TTITLE2=Life turned her that way
TTITLE3=Don Williams medley (Gipsy oman, Coffee black, Turn out the lights
TTITLE4=Bartender blues
TTITLE5=Highway forty blues
TTITLE6=Battle hymn of love
TTITLE7=Just to see your smile
TTITLE8=Irish waltz medley (Any Tipperary town, Galway bay, Homes or Donegal)
TTITLE9=I told you so
TTITLE10=Bachelor boy
TTITLE11=Hank Williams medley (Cheatin heart, Take thes chains, I cant help it)
EXTD=
EXTT0=
EXTT1=
EXTT2=
EXTT3=
EXTT4=
EXTT5=
EXTT6=
EXTT7=
EXTT8=
EXTT9=
EXTT10=
EXTT11=
PLAYORDER=
